<svg viewBox="0 0 1920 95" xmlns="http://www.w3.org/2000/svg" xmlns:xlink="http://www.w3.org/1999/xlink" width="1920.000000" height="95.000000" fill="none" customFrame="#000000">
	<path id="Subtract" d="M1920 94.99L1919.99 95L1919.98 95L1919.98 94.9904C1919.45 81.6513 1908.47 71 1895 71L1636.52 71C1631.46 71 1627.3 67.1688 1625.81 62.3276C1619.54 41.8731 1600.51 27 1578 27L551 27C528.491 27 509.457 41.8731 503.187 62.3276C501.703 67.1689 497.544 71 492.481 71L25 71C11.531 71 0.549816 81.6514 0.0200144 94.9904L0.0196342 95L0.0100101 95L0 94.99L0 10C0 4.47715 4.47715 0 10 0L1910 0C1915.52 0 1920 4.47715 1920 10L1920 94.99Z" fill="rgb(112,39,226)" fill-rule="evenodd" />
</svg>
