<svg viewBox="0 0 71 71" xmlns="http://www.w3.org/2000/svg" xmlns:xlink="http://www.w3.org/1999/xlink" width="71.000000" height="71.000000" fill="none">
	<rect id="фрейм 1" width="71.000000" height="71.000000" x="0.000000" y="0.000000" />
	<g id="Header">
		<g id="Background">
			<rect id="Rectangle 52" width="10.000000" height="9.000000" x="-1572.000000" y="0.000000" />
			<rect id="Rectangle 53" width="13.000000" height="9.000000" x="335.000000" y="0.000000" />
		</g>
	</g>
	<path id="Subtract" d="M348 94.99L347.99 95L347.98 95L347.98 94.9904C347.45 81.6513 336.469 71 323 71L64.519 71C59.4554 71 55.2965 67.1688 53.8126 62.3276C47.5432 41.8731 28.5087 27 6 27L-1021 27C-1043.51 27 -1062.54 41.8731 -1068.81 62.3276C-1070.3 67.1689 -1074.46 71 -1079.52 71L-1547 71C-1560.47 71 -1571.45 81.6514 -1571.98 94.9904L-1571.98 95L-1571.99 95L-1572 94.99L-1572 10C-1572 4.47715 -1567.52 0 -1562 0L338 0C343.523 0 348 4.47715 348 10L348 94.99Z" fill="rgb(112,39,226)" fill-rule="evenodd" />
</svg>
