<svg viewBox="0 0 24 24" xmlns="http://www.w3.org/2000/svg" xmlns:xlink="http://www.w3.org/1999/xlink" width="24.000000" height="24.000000" fill="none">
	<rect id="фрейм 1" width="24.000000" height="24.000000" x="0.000000" y="0.000000" />
	<g id="Header">
		<g id="Background">
			<rect id="Rectangle 52" width="10.000000" height="9.000000" x="0.000000" y="-71.000000" />
			<rect id="Rectangle 53" width="13.000000" height="9.000000" x="1907.000000" y="-71.000000" />
		</g>
	</g>
	<path id="Subtract" d="M1920 23.99L1919.99 24L1919.98 24L1919.98 23.9904C1919.45 10.6513 1908.47 0 1895 0L1636.52 0C1631.46 0 1627.3 -3.83116 1625.81 -8.67239C1619.54 -29.1269 1600.51 -44 1578 -44L551 -44C528.491 -44 509.457 -29.1269 503.187 -8.67237C501.703 -3.83113 497.544 0 492.481 0L25 0C11.531 0 0.549816 10.6514 0.0200146 23.9904L0.0196345 24L0.0100103 24L0 23.99L0 -61C0 -66.5229 4.47715 -71 10 -71L1910 -71C1915.52 -71 1920 -66.5229 1920 -61L1920 23.99Z" fill="rgb(112,39,226)" fill-rule="evenodd" />
</svg>
