<svg viewBox="0 0 71 71" xmlns="http://www.w3.org/2000/svg" xmlns:xlink="http://www.w3.org/1999/xlink" width="71.000000" height="71.000000" fill="none">
	<rect id="фрейм 1" width="71.000000" height="71.000000" x="0.000000" y="0.000000" />
	<g id="Header">
		<g id="Background">
			<rect id="Rectangle 52" width="10.000000" height="9.000000" x="-488.000000" y="0.000000" />
			<rect id="Rectangle 53" width="13.000000" height="9.000000" x="1419.000000" y="0.000000" />
		</g>
	</g>
	<path id="Subtract" d="M1432 94.99L1431.99 95L1431.98 95L1431.98 94.9904C1431.45 81.6513 1420.47 71 1407 71L1148.52 71C1143.46 71 1139.3 67.1688 1137.81 62.3276C1131.54 41.8731 1112.51 27 1090 27L63 27C40.4914 27 21.4566 41.8731 15.1874 62.3276C13.7035 67.1689 9.54449 71 4.48096 71L-463 71C-476.469 71 -487.45 81.6514 -487.98 94.9904L-487.98 95L-487.99 95L-488 94.99L-488 10C-488 4.47715 -483.523 0 -478 0L1422 0C1427.52 0 1432 4.47715 1432 10L1432 94.99Z" fill="rgb(112,39,226)" fill-rule="evenodd" />
</svg>
